<?xml version="1.0" standalone="no"?><!DOCTYPE svg PUBLIC "-//W3C//DTD SVG 1.1//EN" "http://www.w3.org/Graphics/SVG/1.1/DTD/svg11.dtd"><svg t="1537513711547" class="icon" style="" viewBox="0 0 1024 1024" version="1.1" xmlns="http://www.w3.org/2000/svg" p-id="3644" xmlns:xlink="http://www.w3.org/1999/xlink" width="200" height="200"><defs><style type="text/css"></style></defs><path d="M949.255 384.317C897.541 195.653 733.469 49.723 527.175 30.859 261.448 6.561 26.337 202.277 2.039 468.005-22.262 733.73 173.456 968.841 439.183 993.142c208.146 19.035 397.465-96.951 481.437-275.814a26.427 26.427 0 0 0 3.537-11.016c1.337-14.605-9.418-27.522-24.023-28.861-10.869-0.991-20.805 4.718-25.724 13.724-0.002 0.003-0.007 0.003-0.009 0.005l-0.021 0.045a27.137 27.137 0 0 0-1.3 2.771c-68.557 146.538-217.566 248.079-390.031 248.079C245.524 942.073 52.974 749.524 52.974 512c0-237.522 192.55-430.073 430.075-430.073 197.336 0 363.609 132.914 414.231 314.097l-77.628 17.485 105.509 77.802c0.433 0.348 0.885 0.671 1.341 0.989 5.376 3.738 12.229 5.32 19.119 3.766 6.895-1.551 12.404-5.917 15.66-11.599l0.789-1.469 61.966-115.525-74.781 16.844z" p-id="3645" fill="#515151"></path><path d="M660.359 306.04c-4.758-4.934-11.424-8.015-18.819-8.015-7.398 0-14.063 3.081-18.821 8.015h-0.027L498.018 430.711 374.409 307.105l-0.916-0.916-0.149-0.15h-0.014c-4.681-4.378-10.949-7.079-17.862-7.079-6.913 0-13.182 2.701-17.861 7.079-5.104 4.775-8.312 11.549-8.312 19.093 0 7.36 3.049 14.002 7.942 18.755l95.331 95.396h-65.387c-14.453 0-26.17 11.717-26.17 26.17s11.718 26.171 26.17 26.171h104.668c0 0.041-0.005 0.078-0.005 0.116v78.473H367.181c-14.453 0-26.17 11.717-26.17 26.169 0 14.454 11.718 26.171 26.17 26.171h104.664v157.032c0 14.454 11.719 26.171 26.172 26.171 14.457 0 26.171-11.717 26.171-26.171V622.554h104.661c14.453 0 26.171-11.717 26.171-26.171 0-14.452-11.718-26.169-26.171-26.169H524.188V491.74c0-0.038-0.005-0.076-0.006-0.116h104.667c14.453 0 26.171-11.717 26.171-26.171 0-14.453-11.718-26.17-26.171-26.17h-65.383l96.838-96.868-0.002 0.003c4.578-4.714 7.407-11.132 7.407-18.22 0.002-7.059-2.806-13.45-7.35-18.158z" p-id="3646" fill="#515151"></path></svg>