<?xml version="1.0" standalone="no"?><!DOCTYPE svg PUBLIC "-//W3C//DTD SVG 1.1//EN" "http://www.w3.org/Graphics/SVG/1.1/DTD/svg11.dtd"><svg t="1537513465097" class="icon" style="" viewBox="0 0 1024 1024" version="1.1" xmlns="http://www.w3.org/2000/svg" p-id="1003" xmlns:xlink="http://www.w3.org/1999/xlink" width="200" height="200"><defs><style type="text/css"></style></defs><path d="M887.466667 268.8h-89.6v-128c0-29.866667-23.466667-53.333333-53.333334-53.333333H115.2C87.466667 89.6 64 113.066667 64 142.933333V874.666667c0 34.133333 32 59.733333 72.533333 59.733333h753.066667c29.866667 0 55.466667-14.933333 66.133333-36.266667 4.266667-6.4 6.4-14.933333 6.4-23.466666V328.533333c-2.133333-32-34.133333-59.733333-74.666666-59.733333z m-772.266667-128h629.333333s2.133333 0 2.133334 2.133333v128H136.533333c-8.533333 0-14.933333 2.133333-21.333333 2.133334V140.8zM908.8 874.666667c0 2.133333-8.533333 8.533333-21.333333 8.533333H136.533333c-12.8 0-21.333333-6.4-21.333333-8.533333V330.666667c0-2.133333 8.533333-8.533333 21.333333-8.533334h750.933334c12.8 0 21.333333 6.4 21.333333 8.533334V874.666667z" fill="#515151" p-id="1004"></path><path d="M716.8 631.466667H810.666667V725.333333h-93.866667zM198.4 480H746.666667v51.2H198.4z" fill="#515151" p-id="1005"></path></svg>