<?xml version="1.0" standalone="no"?><!DOCTYPE svg PUBLIC "-//W3C//DTD SVG 1.1//EN" "http://www.w3.org/Graphics/SVG/1.1/DTD/svg11.dtd"><svg t="1537184287214" class="icon" style="" viewBox="0 0 1024 1024" version="1.1" xmlns="http://www.w3.org/2000/svg" p-id="846" xmlns:xlink="http://www.w3.org/1999/xlink" width="200" height="200"><defs><style type="text/css"></style></defs><path d="M511.169587 175.255513c110.465904 0 205.064422 67.143213 243.044432 161.64247h51.551096c-40.08188-121.030517-156.949588-208.873168-294.595528-208.873168-137.644917 0-254.55151 87.842651-294.593482 208.873168h51.530631c37.981033-94.499258 132.578528-161.64247 243.062851-161.64247z m432.142208 176.233793H79.028403c-16.770965 0-30.379914 13.196557-30.379915 29.496801v101.648075c0 16.300244 13.608949 29.496801 30.379915 29.496801h25.411763l66.809615 333.281619s3.770883 46.797839 40.572044 46.797839h601.148389c36.821627 0 40.59251-46.797839 40.59251-46.797839l66.809616-333.281619h22.937408c16.770965 0 30.360472-13.196557 30.360472-29.496801v-101.648075c0.002047-16.299221-13.58746-29.496801-30.358425-29.496801zM382.656655 781.568529c0 17.400299-14.493086 31.500435-32.383548 31.500434s-32.383548-14.100136-32.383548-31.500434V525.799284c0-17.400299 14.493086-31.500435 32.383548-31.500435s32.383548 14.100136 32.383548 31.500435v255.769245z m160.897503 0c0 17.400299-14.513552 31.500435-32.383548 31.500434-17.909905 0-32.383548-14.100136-32.383548-31.500434V525.799284c0-17.400299 14.473643-31.500435 32.383548-31.500435 17.871019 0 32.383548 14.100136 32.383548 31.500435v255.769245z m160.89648 0c0 17.400299-14.493086 31.500435-32.40299 31.500434-17.871019 0-32.364105-14.100136-32.364105-31.500434V525.799284c0-17.400299 14.493086-31.500435 32.364105-31.500435 17.909905 0 32.402991 14.100136 32.40299 31.500435v255.769245z" p-id="847" fill="#e6e6e6"></path></svg>